<svg xmlns="http://www.w3.org/2000/svg" xmlns:xlink="http://www.w3.org/1999/xlink" width="500" zoomAndPan="magnify" viewBox="0 0 375 374.999991" height="500" preserveAspectRatio="xMidYMid meet" version="1.0"><defs><clipPath id="50b0042c3b"><path d="M 58.15625 38.683594 L 316.90625 38.683594 L 316.90625 337.183594 L 58.15625 337.183594 Z M 58.15625 38.683594 " clip-rule="nonzero"/></clipPath><clipPath id="1d409f354a"><path d="M 28.101562 2.390625 L 346.847656 2.390625 L 346.847656 373.417969 L 28.101562 373.417969 Z M 28.101562 2.390625 " clip-rule="nonzero"/></clipPath><clipPath id="cc9ae95c30"><path d="M 187.527344 2.390625 L 346.953125 95.148438 L 346.953125 280.664062 L 187.527344 373.417969 L 28.101562 280.664062 L 28.101562 95.148438 Z M 187.527344 2.390625 " clip-rule="nonzero"/></clipPath><clipPath id="b038bc85b4"><path d="M 325 279 L 348 279 L 348 316 L 325 316 Z M 325 279 " clip-rule="nonzero"/></clipPath><clipPath id="c4a7307724"><path d="M 358.441406 296.859375 L 327.578125 315.394531 L 316.765625 297.394531 L 347.625 278.855469 Z M 358.441406 296.859375 " clip-rule="nonzero"/></clipPath><clipPath id="e24aa203e5"><path d="M 358.441406 296.859375 L 327.578125 315.394531 L 316.765625 297.394531 L 347.625 278.855469 Z M 358.441406 296.859375 " clip-rule="nonzero"/></clipPath><clipPath id="9147463a33"><path d="M 146 358 L 188 358 L 188 373 L 146 373 Z M 146 358 " clip-rule="nonzero"/></clipPath><clipPath id="195737b9a5"><path d="M 176.746094 390.347656 L 145.945312 371.710938 L 156.816406 353.742188 L 187.617188 372.378906 Z M 176.746094 390.347656 " clip-rule="nonzero"/></clipPath><clipPath id="47f36bad49"><path d="M 176.746094 390.347656 L 145.945312 371.710938 L 156.816406 353.742188 L 187.617188 372.378906 Z M 176.746094 390.347656 " clip-rule="nonzero"/></clipPath><clipPath id="abbc0389a2"><path d="M 26 62 L 50 62 L 50 98 L 26 98 Z M 26 62 " clip-rule="nonzero"/></clipPath><clipPath id="4a11c2f756"><path d="M 16.648438 79.441406 L 48.441406 62.558594 L 58.292969 81.105469 L 26.496094 97.988281 Z M 16.648438 79.441406 " clip-rule="nonzero"/></clipPath><clipPath id="a72f01bfd0"><path d="M 16.648438 79.441406 L 48.441406 62.558594 L 58.292969 81.105469 L 26.496094 97.988281 Z M 16.648438 79.441406 " clip-rule="nonzero"/></clipPath><clipPath id="edf320715d"><path d="M 9.460938 247.519531 L 30.460938 247.519531 L 30.460938 283.519531 L 9.460938 283.519531 Z M 9.460938 247.519531 " clip-rule="nonzero"/></clipPath><clipPath id="b2d1d5ba9a"><path d="M 184 1 L 227 1 L 227 16 L 184 16 Z M 184 1 " clip-rule="nonzero"/></clipPath><clipPath id="067dc7625e"><path d="M 194.824219 -15.351562 L 226.449219 1.855469 L 216.410156 20.300781 L 184.789062 3.097656 Z M 194.824219 -15.351562 " clip-rule="nonzero"/></clipPath><clipPath id="9ad888f727"><path d="M 194.824219 -15.351562 L 226.449219 1.855469 L 216.410156 20.300781 L 184.789062 3.097656 Z M 194.824219 -15.351562 " clip-rule="nonzero"/></clipPath><clipPath id="d5a807606d"><path d="M 344.539062 93.324219 L 365.539062 93.324219 L 365.539062 129.324219 L 344.539062 129.324219 Z M 344.539062 93.324219 " clip-rule="nonzero"/></clipPath></defs><g clip-path="url(#50b0042c3b)"><path fill="#000000" d="M 89.949219 95.011719 L 89.945312 95.011719 L 130.757812 71.453125 L 260.039062 146.078125 L 219.226562 169.636719 L 198.789062 157.839844 L 198.789062 231.027344 L 244.300781 257.296875 L 275.996094 239.003906 C 275.996094 215.035156 275.996094 160.835938 275.996094 136.867188 L 275.996094 136.863281 L 146.71875 62.242188 L 187.53125 38.683594 L 316.808594 113.308594 L 316.808594 262.558594 L 244.300781 304.414062 L 115.019531 229.789062 L 155.832031 206.230469 L 176.269531 218.027344 L 176.269531 144.839844 L 130.757812 118.570312 L 99.0625 136.867188 C 99.0625 160.835938 99.0625 215.035156 99.0625 239.003906 L 187.53125 290.070312 L 228.339844 313.625 L 187.53125 337.183594 L 58.25 262.558594 L 58.25 113.308594 Z M 89.949219 95.011719 " fill-opacity="1" fill-rule="evenodd"/></g><g clip-path="url(#1d409f354a)"><g clip-path="url(#cc9ae95c30)"><path stroke-linecap="butt" transform="matrix(0, -0.75, 0.75, 0, 28.101269, 373.419146)" fill="none" stroke-linejoin="miter" d="M 494.704695 212.568101 L 371.027612 425.135809 L 123.673445 425.135809 L 0.00156951 212.568101 L 123.673445 0.0003919 L 371.027612 0.0003919 Z M 494.704695 212.568101 " stroke="#000000" stroke-width="8" stroke-opacity="1" stroke-miterlimit="4"/></g></g><g clip-path="url(#b038bc85b4)"><g clip-path="url(#c4a7307724)"><g clip-path="url(#e24aa203e5)"><path fill="#000000" d="M 347.691406 279.007812 L 327.660156 315.347656 L 325.042969 292.613281 Z M 347.691406 279.007812 " fill-opacity="1" fill-rule="nonzero"/></g></g></g><g clip-path="url(#9147463a33)"><g clip-path="url(#195737b9a5)"><g clip-path="url(#47f36bad49)"><path fill="#000000" d="M 187.511719 372.507812 L 146.023438 371.757812 L 164.90625 358.832031 Z M 187.511719 372.507812 " fill-opacity="1" fill-rule="nonzero"/></g></g></g><g clip-path="url(#abbc0389a2)"><g clip-path="url(#4a11c2f756)"><g clip-path="url(#a72f01bfd0)"><path fill="#000000" d="M 26.4375 97.835938 L 48.363281 62.601562 L 49.773438 85.441406 Z M 26.4375 97.835938 " fill-opacity="1" fill-rule="nonzero"/></g></g></g><g clip-path="url(#edf320715d)"><path fill="#000000" d="M 30.296875 283.496094 L 9.460938 247.609375 L 30.296875 257.078125 Z M 30.296875 283.496094 " fill-opacity="1" fill-rule="nonzero"/></g><g clip-path="url(#b2d1d5ba9a)"><g clip-path="url(#067dc7625e)"><g clip-path="url(#9ad888f727)"><path fill="#000000" d="M 184.886719 2.960938 L 226.367188 1.8125 L 208.09375 15.589844 Z M 184.886719 2.960938 " fill-opacity="1" fill-rule="nonzero"/></g></g></g><g clip-path="url(#d5a807606d)"><path fill="#000000" d="M 344.703125 93.34375 L 365.539062 129.230469 L 344.703125 119.765625 Z M 344.703125 93.34375 " fill-opacity="1" fill-rule="nonzero"/></g></svg>